<svg width="188" height="62" viewBox="0 0 188 62" fill="none" xmlns="http://www.w3.org/2000/svg">
<g filter="url(#filter0_d_569_379)">
<rect x="8" y="8" width="171.733" height="46" rx="23" fill="url(#paint0_linear_569_379)" shape-rendering="crispEdges"/>
<path d="M24.9894 41.6L29.62 19.8266H38.9734C40.1183 19.8266 41.0894 20.1231 41.8867 20.716C42.7045 21.3089 43.3178 22.0755 43.7267 23.016C44.156 23.936 44.3707 24.9173 44.3707 25.96C44.3707 26.7164 44.2583 27.4626 44.0334 28.1986C43.8085 28.9346 43.4814 29.64 43.052 30.3146C42.6227 30.9893 42.1116 31.6026 41.5187 32.1546C40.9463 32.6862 40.3125 33.136 39.6174 33.504L42.408 41.6H36.7347L34.3427 34.5773H31.4907L30.0187 41.6H24.9894ZM36.612 30.192C36.8983 30.192 37.1947 30.1 37.5014 29.916C37.808 29.7115 38.084 29.4458 38.3294 29.1186C38.5951 28.7711 38.7996 28.3724 38.9427 27.9226C39.1063 27.4729 39.188 26.9924 39.188 26.4813C39.188 26.0315 39.1165 25.6431 38.9734 25.316C38.8507 24.9684 38.6769 24.7026 38.452 24.5186C38.2271 24.3346 37.9818 24.2426 37.716 24.2426H33.6987L32.4414 30.192H36.612ZM47.6705 25.5H52.5771L49.1425 41.6H44.2358L47.6705 25.5ZM48.9891 19.2133H53.8958L52.9451 23.66H48.0385L48.9891 19.2133ZM55.8455 25.5H60.1389L59.5562 28.1066C60.3127 27.1866 61.1611 26.4711 62.1015 25.96C63.0624 25.4489 64.1153 25.1933 65.2602 25.1933C66.4255 25.1933 67.4171 25.4898 68.2349 26.0826C69.0731 26.6551 69.7171 27.432 70.1669 28.4133C70.6167 29.3946 70.8415 30.5089 70.8415 31.756C70.8415 33.1053 70.6064 34.3933 70.1362 35.62C69.666 36.8262 69.0322 37.9098 68.2349 38.8706C67.4375 39.8111 66.5175 40.5573 65.4749 41.1093C64.4322 41.6409 63.3487 41.9066 62.2242 41.9066C61.0998 41.9066 60.1593 41.6511 59.4029 41.14C58.6669 40.6084 58.166 39.8929 57.9002 38.9933L55.9375 48.132H51.0309L55.8455 25.5ZM61.4269 37.7666C61.9789 37.7666 62.5104 37.6235 63.0215 37.3373C63.5327 37.0306 63.9927 36.632 64.4015 36.1413C64.8104 35.6506 65.1273 35.0986 65.3522 34.4853C65.5975 33.8515 65.7202 33.2075 65.7202 32.5533C65.7202 31.94 65.6078 31.3982 65.3829 30.928C65.158 30.4373 64.8411 30.0591 64.4322 29.7933C64.0233 29.5071 63.5327 29.364 62.9602 29.364C62.674 29.364 62.3673 29.4151 62.0402 29.5173C61.7335 29.6195 61.4269 29.7729 61.1202 29.9773C60.8135 30.1613 60.5171 30.3862 60.2309 30.652C59.9651 30.9178 59.7095 31.2244 59.4642 31.572L58.7589 34.884C58.8611 35.436 59.0247 35.9266 59.2495 36.356C59.4949 36.7853 59.8015 37.1329 60.1695 37.3986C60.558 37.644 60.9771 37.7666 61.4269 37.7666ZM81.9009 25.5H86.8076L83.3729 41.6H78.4663L81.9009 25.5ZM83.2196 19.2133H88.1263L87.1756 23.66H82.2689L83.2196 19.2133ZM88.3893 38.8706C88.3893 38.6662 88.3996 38.4618 88.42 38.2573C88.4405 38.0529 88.4711 37.8382 88.512 37.6133L90.2907 29.2106H88.3587L89.1867 25.5H91.088L92.192 20.3786H97.0987L95.9947 25.5H99.092L98.2947 29.2106H95.1973L93.7867 35.9266C93.7662 36.0084 93.7458 36.1004 93.7253 36.2026C93.7253 36.2844 93.7253 36.3662 93.7253 36.448C93.7253 36.7955 93.8173 37.0511 94.0013 37.2146C94.2058 37.3578 94.4613 37.4293 94.768 37.4293C94.9929 37.4293 95.228 37.3986 95.4733 37.3373C95.7187 37.276 95.964 37.2044 96.2093 37.1226C96.4751 37.0409 96.7205 36.9489 96.9453 36.8466L97.0067 40.7413C96.516 40.9458 95.9845 41.14 95.412 41.324C94.86 41.508 94.2876 41.6511 93.6947 41.7533C93.1222 41.8555 92.5498 41.9066 91.9773 41.9066C90.9551 41.9066 90.0965 41.6715 89.4013 41.2013C88.7267 40.7311 88.3893 39.9542 88.3893 38.8706ZM101.165 32.952L103.956 19.612H108.862L106.072 32.952H101.165ZM99.2945 41.6L100.398 36.5093H105.305L104.201 41.6H99.2945Z" fill="white"/>
<path d="M127.6 18.7333L140.096 31.4054L127.6 44.0569C130.192 44.0409 132.781 44.0329 135.368 44.0329L147.829 31.4054L135.415 18.8121C133.323 18.8121 131.232 18.7996 129.14 18.7744C129.289 18.7744 128.519 18.7573 127.6 18.7333Z" fill="white"/>
<path d="M141.224 18.819L153.635 31.4055L141.17 44.0398C142.845 44.0398 144.52 44.0524 146.195 44.0775C145.823 44.0775 147.499 44.0467 148.897 44.0775L161.392 31.4055L148.93 18.7848C146.36 18.8088 143.811 18.8156 141.224 18.819Z" fill="white"/>
</g>
<defs>
<filter id="filter0_d_569_379" x="0.333333" y="0.333333" width="187.067" height="61.3333" filterUnits="userSpaceOnUse" color-interpolation-filters="sRGB">
<feFlood flood-opacity="0" result="BackgroundImageFix"/>
<feColorMatrix in="SourceAlpha" type="matrix" values="0 0 0 0 0 0 0 0 0 0 0 0 0 0 0 0 0 0 127 0" result="hardAlpha"/>
<feOffset/>
<feGaussianBlur stdDeviation="3.83333"/>
<feComposite in2="hardAlpha" operator="out"/>
<feColorMatrix type="matrix" values="0 0 0 0 0 0 0 0 0 0 0 0 0 0 0 0 0 0 0.5 0"/>
<feBlend mode="normal" in2="BackgroundImageFix" result="effect1_dropShadow_569_379"/>
<feBlend mode="normal" in="SourceGraphic" in2="effect1_dropShadow_569_379" result="shape"/>
</filter>
<linearGradient id="paint0_linear_569_379" x1="96.1874" y1="57.1081" x2="96.1874" y2="1.16216" gradientUnits="userSpaceOnUse">
<stop stop-color="#3F60A0"/>
<stop offset="1" stop-color="#40B7C0"/>
</linearGradient>
</defs>
</svg>
